<mxfile host="app.diagrams.net" modified="2024-05-27T06:07:57.033Z" agent="Mozilla/5.0 (Windows NT 10.0; Win64; x64) AppleWebKit/537.36 (KHTML, like Gecko) Chrome/125.0.0.0 Safari/537.36" version="24.3.1" etag="wVAmqsbG58cmAczCdJqz" type="github">
  <diagram name="페이지-1" id="Ai0jkUrAbP7CtdFuhF-L">
    <mxGraphModel>
      <root>
        <mxCell id="0" />
        <mxCell id="1" parent="0" />
      </root>
    </mxGraphModel>
  </diagram>
</mxfile>
